<svg data-v-29081953="" xmlns="http://www.w3.org/2000/svg" viewBox="0 0 300 300"><!---->
    <defs data-v-29081953=""><!----></defs>
    <rect data-v-29081953="" fill="transparent" x="0" y="0" width="300px" height="300px"
          class="logo-background-square"></rect>
    <defs data-v-29081953=""><!----></defs>
    <g data-v-29081953="" id="35e1531d-b26f-4094-993c-d3abbed5583f" fill="#ffffff"
       transform="matrix(3.0332440042485724,0,0,3.0332440042485724,103.48461635947733,124.18709427595364)">
        <path d="M0.70 3.00L2.66 3.00L2.66 12.05L0.70 12.05L0.70 3.00ZM9.10 6.93L9.10 7.91L7.22 7.91L7.22 6.71L7.22 6.71Q7.22 6.59 7.15 6.51L7.15 6.51L7.15 6.51Q7.07 6.43 6.96 6.43L6.96 6.43L6.19 6.43L6.19 6.43Q6.08 6.43 6.00 6.51L6.00 6.51L6.00 6.51Q5.92 6.59 5.92 6.71L5.92 6.71L5.92 10.57L5.92 10.57Q5.92 10.68 6.00 10.77L6.00 10.77L6.00 10.77Q6.08 10.85 6.19 10.85L6.19 10.85L6.96 10.85L6.96 10.85Q7.07 10.85 7.15 10.77L7.15 10.77L7.15 10.77Q7.22 10.68 7.22 10.57L7.22 10.57L7.22 9.37L9.10 9.37L9.10 10.35L9.10 10.35Q9.10 12.19 7.36 12.19L7.36 12.19L5.78 12.19L5.78 12.19Q4.05 12.19 4.05 10.35L4.05 10.35L4.05 6.93L4.05 6.93Q4.05 5.08 5.78 5.08L5.78 5.08L7.36 5.08L7.36 5.08Q9.10 5.08 9.10 6.93L9.10 6.93ZM12.03 5.08L13.61 5.08L13.61 5.08Q15.34 5.08 15.34 6.93L15.34 6.93L15.34 9.14L12.17 9.14L12.17 10.57L12.17 10.57Q12.17 10.68 12.24 10.77L12.24 10.77L12.24 10.77Q12.32 10.85 12.43 10.85L12.43 10.85L13.20 10.85L13.20 10.85Q13.31 10.85 13.39 10.77L13.39 10.77L13.39 10.77Q13.47 10.68 13.47 10.57L13.47 10.57L13.47 9.81L15.34 9.81L15.34 10.35L15.34 10.35Q15.34 12.19 13.61 12.19L13.61 12.19L12.03 12.19L12.03 12.19Q10.29 12.19 10.29 10.35L10.29 10.35L10.29 6.93L10.29 6.93Q10.29 5.08 12.03 5.08L12.03 5.08ZM12.17 6.65L12.17 7.91L13.47 7.91L13.47 6.65L13.47 6.65Q13.47 6.54 13.39 6.45L13.39 6.45L13.39 6.45Q13.31 6.37 13.20 6.37L13.20 6.37L12.43 6.37L12.43 6.37Q12.32 6.37 12.24 6.45L12.24 6.45L12.24 6.45Q12.17 6.54 12.17 6.65L12.17 6.65ZM18.87 10.98L18.87 10.98L19.43 10.98L19.43 12.19L18.12 12.19L18.12 12.19Q16.38 12.19 16.38 10.35L16.38 10.35L16.38 3.74L18.26 3.74L18.26 5.22L19.43 5.22L19.43 6.58L18.26 6.58L18.26 10.30L18.26 10.30Q18.26 10.70 18.41 10.84L18.41 10.84L18.41 10.84Q18.56 10.98 18.87 10.98ZM22.15 5.08L23.73 5.08L23.73 5.08Q25.47 5.08 25.47 6.93L25.47 6.93L25.47 9.14L22.29 9.14L22.29 10.57L22.29 10.57Q22.29 10.68 22.37 10.77L22.37 10.77L22.37 10.77Q22.44 10.85 22.55 10.85L22.55 10.85L23.32 10.85L23.32 10.85Q23.44 10.85 23.51 10.77L23.51 10.77L23.51 10.77Q23.59 10.68 23.59 10.57L23.59 10.57L23.59 9.81L25.47 9.81L25.47 10.35L25.47 10.35Q25.47 12.19 23.73 12.19L23.73 12.19L22.15 12.19L22.15 12.19Q20.41 12.19 20.41 10.35L20.41 10.35L20.41 6.93L20.41 6.93Q20.41 5.08 22.15 5.08L22.15 5.08ZM22.29 6.65L22.29 7.91L23.59 7.91L23.59 6.65L23.59 6.65Q23.59 6.54 23.51 6.45L23.51 6.45L23.51 6.45Q23.44 6.37 23.32 6.37L23.32 6.37L22.55 6.37L22.55 6.37Q22.44 6.37 22.37 6.45L22.37 6.45L22.37 6.45Q22.29 6.54 22.29 6.65L22.29 6.65ZM29.97 5.73L29.97 5.22L31.56 5.22L31.56 12.05L29.97 12.05L29.97 11.55L29.97 11.55Q29.54 12.19 28.53 12.19L28.53 12.19L28.24 12.19L28.24 12.19Q26.50 12.19 26.50 10.35L26.50 10.35L26.50 6.93L26.50 6.93Q26.50 5.08 28.24 5.08L28.24 5.08L28.53 5.08L28.53 5.08Q29.54 5.08 29.97 5.73L29.97 5.73ZM29.68 10.57L29.68 10.57L29.68 6.71L29.68 6.71Q29.68 6.59 29.60 6.51L29.60 6.51L29.60 6.51Q29.53 6.43 29.41 6.43L29.41 6.43L28.64 6.43L28.64 6.43Q28.53 6.43 28.45 6.51L28.45 6.51L28.45 6.51Q28.38 6.59 28.38 6.71L28.38 6.71L28.38 10.57L28.38 10.57Q28.38 10.68 28.45 10.77L28.45 10.77L28.45 10.77Q28.53 10.85 28.64 10.85L28.64 10.85L29.41 10.85L29.41 10.85Q29.53 10.85 29.60 10.77L29.60 10.77L29.60 10.77Q29.68 10.68 29.68 10.57ZM37.88 6.93L37.88 7.91L36.01 7.91L36.01 6.71L36.01 6.71Q36.01 6.59 35.93 6.51L35.93 6.51L35.93 6.51Q35.85 6.43 35.74 6.43L35.74 6.43L34.97 6.43L34.97 6.43Q34.86 6.43 34.78 6.51L34.78 6.51L34.78 6.51Q34.71 6.59 34.71 6.71L34.71 6.71L34.71 10.57L34.71 10.57Q34.71 10.68 34.78 10.77L34.78 10.77L34.78 10.77Q34.86 10.85 34.97 10.85L34.97 10.85L35.74 10.85L35.74 10.85Q35.85 10.85 35.93 10.77L35.93 10.77L35.93 10.77Q36.01 10.68 36.01 10.57L36.01 10.57L36.01 9.37L37.88 9.37L37.88 10.35L37.88 10.35Q37.88 12.19 36.15 12.19L36.15 12.19L34.57 12.19L34.57 12.19Q32.83 12.19 32.83 10.35L32.83 10.35L32.83 6.93L32.83 6.93Q32.83 5.08 34.57 5.08L34.57 5.08L36.15 5.08L36.15 5.08Q37.88 5.08 37.88 6.93L37.88 6.93ZM40.98 4.37L40.98 4.37L40.98 4.37Q40.68 4.66 40.26 4.66L40.26 4.66L40.26 4.66Q39.84 4.66 39.54 4.36L39.54 4.36L39.54 4.36Q39.23 4.06 39.23 3.63L39.23 3.63L39.23 3.63Q39.23 3.21 39.54 2.90L39.54 2.90L39.54 2.90Q39.84 2.60 40.26 2.60L40.26 2.60L40.26 2.60Q40.68 2.60 40.98 2.90L40.98 2.90L40.98 2.90Q41.29 3.21 41.29 3.64L41.29 3.64L41.29 3.64Q41.29 4.07 40.98 4.37ZM41.20 12.05L39.33 12.05L39.33 5.22L41.20 5.22L41.20 12.05ZM45.01 10.98L45.01 10.98L45.57 10.98L45.57 12.19L44.25 12.19L44.25 12.19Q42.52 12.19 42.52 10.35L42.52 10.35L42.52 3.74L44.39 3.74L44.39 5.22L45.57 5.22L45.57 6.58L44.39 6.58L44.39 10.30L44.39 10.30Q44.39 10.70 44.55 10.84L44.55 10.84L44.55 10.84Q44.70 10.98 45.01 10.98ZM49.73 10.12L49.73 5.22L51.60 5.22L51.60 12.57L51.60 12.57Q51.60 14.42 49.87 14.42L49.87 14.42L48.47 14.42L48.47 14.42Q46.73 14.42 46.73 12.57L46.73 12.57L46.73 12.35L48.55 12.35L48.55 12.80L48.55 12.80Q48.55 12.91 48.63 12.99L48.63 12.99L48.63 12.99Q48.71 13.08 48.82 13.08L48.82 13.08L49.46 13.08L49.46 13.08Q49.57 13.08 49.65 12.99L49.65 12.99L49.65 12.99Q49.73 12.91 49.73 12.80L49.73 12.80L49.73 11.41L49.73 11.41Q49.31 11.75 48.58 11.75L48.58 11.75L48.29 11.75L48.29 11.75Q46.55 11.75 46.55 9.90L46.55 9.90L46.55 5.22L48.43 5.22L48.43 10.12L48.43 10.12Q48.43 10.23 48.50 10.32L48.50 10.32L48.50 10.32Q48.58 10.40 48.69 10.40L48.69 10.40L49.46 10.40L49.46 10.40Q49.57 10.40 49.65 10.32L49.65 10.32L49.65 10.32Q49.73 10.23 49.73 10.12L49.73 10.12Z"></path>
    </g>
    <defs data-v-29081953="">
        <linearGradient data-v-29081953="" gradientTransform="rotate(25)" id="758138c9-2c3c-4a16-9d4d-b2a6e1b0ab17"
                        x1="0%" y1="0%" x2="100%" y2="0%">
            <stop data-v-29081953="" offset="0%" stop-color="#8D2CE3" stop-opacity="1"></stop>
            <stop data-v-29081953="" offset="100%" stop-color="#F7C6F6" stop-opacity="1"></stop>
        </linearGradient>
    </defs>
    <g data-v-29081953="" id="fa02aa81-f502-41ae-9c19-11b3a7ea496d" stroke="none"
       fill="url(#758138c9-2c3c-4a16-9d4d-b2a6e1b0ab17)"
       transform="matrix(0.7806610953945138,0,0,0.7806610953945138,27.309919763600128,110.81081241559826)">
        <path d="M38.7 50.3c-.3-.7-.1-1.8.3-2.5l5.3-6.9c.5-.6 1.5-1.1 2.3-.9l8.7 1.2c.8.1 1.7.8 2 1.5l3.3 8.1c.3.7.1 1.8-.3 2.5L55 60.2c-.5.6-1.5 1.1-2.3.9L44 59.9c-.8-.1-1.7-.8-2-1.5l-3.3-8.1zM58.1 63.9c-.3-.7-.1-1.8.3-2.5l5.4-6.9c.5-.6 1.5-1.1 2.3-.9l8.7 1.2c.8.1 1.7.8 2 1.5l3.3 8.1c.3.7.1 1.8-.3 2.5l-5.3 6.9c-.5.6-1.5 1.1-2.3.9l-8.7-1.2c-.8-.1-1.7-.8-2-1.5l-3.4-8.1zM19.6 34.6c-.3-.7-.2-1.8.3-2.5l5.3-6.9c.5-.6 1.5-1.1 2.3-.9l8.7 1.2c.8.1 1.7.8 2 1.5l3.3 8.1c.3.7.1 1.8-.3 2.5L36 44.3c-.5.6-1.5 1.1-2.3 1L25 44.2c-.8-.1-1.7-.8-2-1.5l-3.4-8.1zM42.1 26.1c-.3-.7-.1-1.8.3-2.5l5.4-6.9c.5-.6 1.5-1.1 2.3-.9l8.7 1.2c.8.1 1.7.8 2 1.5l3.3 8.1c.3.7.1 1.8-.3 2.5L58.4 36c-.5.6-1.5 1.1-2.3.9l-8.7-1.2c-.8-.1-1.7-.8-2-1.5l-3.3-8.1zM61.6 40c-.3-.7-.1-1.8.3-2.5l5.3-6.9c.5-.6 1.5-1.1 2.3-.9l8.7 1.2c.8.1 1.7.8 2 1.5l3.3 8.1c.3.7.1 1.8-.3 2.5l-5.4 6.9c-.5.6-1.5 1.1-2.3.9l-8.7-1.2c-.8-.1-1.7-.8-2-1.5L61.6 40zM16.4 58.5c-.3-.7-.1-1.8.3-2.5l5.3-6.9c.5-.6 1.5-1.1 2.3-.9l8.7 1.2c.8.1 1.7.8 2 1.5l3.3 8.1c.3.7.1 1.8-.3 2.5l-5.3 6.9c-.5.6-1.5 1.1-2.3.9l-8.7-1.2c-.8-.1-1.7-.8-2-1.5l-3.3-8.1zM35.3 73.8c-.3-.7-.1-1.8.3-2.5l5.4-6.9c.5-.6 1.5-1.1 2.3-.9l8.7 1.2c.8.1 1.7.8 2 1.5l3.3 8.1c.3.7.1 1.8-.3 2.5l-5.4 6.9c-.5.6-1.5 1.1-2.3.9l-8.7-1.2c-.8-.1-1.7-.8-2-1.5l-3.3-8.1z"></path>
    </g><!---->
</svg>
